<svg xmlns="http://www.w3.org/2000/svg" xmlns:xlink="http://www.w3.org/1999/xlink" width="700" zoomAndPan="magnify" viewBox="0 0 525 299.999988" height="400" preserveAspectRatio="xMidYMid meet" version="1.0"><defs><g/><clipPath id="fe555ed01c"><path d="M 220 54 L 236 54 L 236 91 L 220 91 Z M 220 54 " clip-rule="nonzero"/></clipPath><clipPath id="8c8c8cd193"><path d="M 214.882812 89.292969 L 219.253906 52.046875 L 235.640625 53.96875 L 231.269531 91.214844 Z M 214.882812 89.292969 " clip-rule="nonzero"/></clipPath><clipPath id="37401907cc"><path d="M 231.257812 91.214844 L 235.628906 53.96875 L 219.242188 52.046875 L 214.871094 89.289062 Z M 231.257812 91.214844 " clip-rule="nonzero"/></clipPath></defs><g fill="#ffffff" fill-opacity="1"><g transform="translate(7.478133, 114.135031)"><g><path d="M 91.65625 0 L 71.515625 0 L 63.609375 -20.65625 L 27.15625 -20.65625 L 19.625 0 L 0 0 L 35.5625 -91.28125 L 55.078125 -91.28125 Z M 32.765625 -36.078125 L 57.75 -36.078125 L 45.125 -69.984375 Z M 32.765625 -36.078125 "/></g></g></g><g fill="#ffffff" fill-opacity="1"><g transform="translate(99.502344, 114.135031)"><g><path d="M 64.640625 -30.34375 L 64.640625 -91.28125 L 81.71875 -91.28125 L 81.71875 0 L 63.234375 0 L 26.515625 -59.53125 L 26.515625 0 L 9.4375 0 L 9.4375 -91.28125 L 27.28125 -91.28125 Z M 64.640625 -30.34375 "/></g></g></g><g fill="#ffffff" fill-opacity="1"><g transform="translate(191.526554, 114.135031)"><g><path d="M 49.59375 -92.8125 C 59.195312 -92.8125 67.3125 -90.769531 73.9375 -86.6875 C 80.570312 -82.601562 85.546875 -76.992188 88.859375 -69.859375 C 92.171875 -62.722656 93.828125 -54.609375 93.828125 -45.515625 C 93.828125 -35.828125 92.0625 -27.453125 88.53125 -20.390625 C 85.007812 -13.335938 79.929688 -7.921875 73.296875 -4.140625 C 66.671875 -0.359375 58.851562 1.53125 49.84375 1.53125 C 40.414062 1.53125 32.363281 -0.421875 25.6875 -4.328125 C 19.019531 -8.242188 13.984375 -13.707031 10.578125 -20.71875 C 7.179688 -27.726562 5.484375 -35.863281 5.484375 -45.125 C 5.484375 -54.726562 7.179688 -63.117188 10.578125 -70.296875 C 13.984375 -77.484375 18.976562 -83.03125 25.5625 -86.9375 C 32.144531 -90.851562 40.15625 -92.8125 49.59375 -92.8125 Z M 24.484375 -45.640625 C 24.484375 -38.503906 25.628906 -32.597656 27.921875 -27.921875 C 30.210938 -23.242188 33.269531 -19.800781 37.09375 -17.59375 C 40.914062 -15.382812 45.125 -14.28125 49.71875 -14.28125 C 53.96875 -14.28125 57.960938 -15.253906 61.703125 -17.203125 C 65.441406 -19.160156 68.5625 -22.5 71.0625 -27.21875 C 73.570312 -31.9375 74.828125 -38.160156 74.828125 -45.890625 C 74.828125 -54.984375 72.828125 -62.441406 68.828125 -68.265625 C 64.835938 -74.085938 58.425781 -77 49.59375 -77 C 40.832031 -77 34.457031 -74.066406 30.46875 -68.203125 C 26.476562 -62.335938 24.484375 -54.816406 24.484375 -45.640625 Z M 24.484375 -45.640625 "/></g></g></g><g fill="#ffffff" fill-opacity="1"><g transform="translate(290.688376, 114.135031)"><g><path d="M 64.640625 -30.34375 L 64.640625 -91.28125 L 81.71875 -91.28125 L 81.71875 0 L 63.234375 0 L 26.515625 -59.53125 L 26.515625 0 L 9.4375 0 L 9.4375 -91.28125 L 27.28125 -91.28125 Z M 64.640625 -30.34375 "/></g></g></g><g fill="#000000" fill-opacity="1"><g transform="translate(7.478133, 237.669861)"><g><path d="M 91.65625 0 L 71.515625 0 L 63.609375 -20.65625 L 27.15625 -20.65625 L 19.625 0 L 0 0 L 35.5625 -91.28125 L 55.078125 -91.28125 Z M 32.765625 -36.078125 L 57.75 -36.078125 L 45.125 -69.984375 Z M 32.765625 -36.078125 "/></g></g></g><g fill="#ffffff" fill-opacity="1"><g transform="translate(99.5066, 237.669861)"><g><path d="M 91.65625 0 L 71.515625 0 L 63.609375 -20.65625 L 27.15625 -20.65625 L 19.625 0 L 0 0 L 35.5625 -91.28125 L 55.078125 -91.28125 Z M 32.765625 -36.078125 L 57.75 -36.078125 L 45.125 -69.984375 Z M 32.765625 -36.078125 "/></g></g></g><g fill="#ffffff" fill-opacity="1"><g transform="translate(191.53081, 237.669861)"><g><path d="M 28.171875 -15.421875 L 74.0625 -15.421875 L 74.0625 0 L 9.8125 0 L 9.8125 -91.28125 L 28.171875 -91.28125 Z M 28.171875 -15.421875 "/></g></g></g><g fill="#ffffff" fill-opacity="1"><g transform="translate(269.407243, 237.669861)"><g><path d="M 42.828125 -55.203125 L 64 -91.28125 L 85.15625 -91.28125 L 51.625 -38.25 L 51.625 0 L 33.265625 0 L 33.265625 -38.375 L -0.125 -91.28125 L 21.421875 -91.28125 Z M 42.828125 -55.203125 "/></g></g></g><g fill="#ffffff" fill-opacity="1"><g transform="translate(354.42129, 237.669861)"><g><path d="M 73.5625 -76.875 L 23.578125 -15.421875 L 75.46875 -15.421875 L 75.46875 0 L 1.40625 0 L 1.40625 -16.578125 L 49.34375 -75.859375 L 6.75 -75.859375 L 6.75 -91.28125 L 73.5625 -91.28125 Z M 73.5625 -76.875 "/></g></g></g><g fill="#ffffff" fill-opacity="1"><g transform="translate(432.297722, 237.669861)"><g><path d="M 77 -75.859375 L 27.671875 -75.859375 L 27.671875 -55.578125 L 73.5625 -55.578125 L 73.5625 -40.15625 L 27.671875 -40.15625 L 27.671875 -15.421875 L 78.65625 -15.421875 L 78.65625 0 L 9.3125 0 L 9.3125 -91.28125 L 77 -91.28125 Z M 77 -75.859375 "/></g></g></g><path stroke-linecap="butt" transform="matrix(0.384881, 0.643713, -0.643713, 0.384881, 259.978525, 97.40392)" fill="none" stroke-linejoin="miter" d="M 0.00104435 12.000718 L 81.419208 12.001255 " stroke="#ffffff" stroke-width="24" stroke-opacity="1" stroke-miterlimit="4"/><path stroke-linecap="butt" transform="matrix(0.384881, 0.643713, -0.643713, 0.384881, 259.528494, 97.40392)" fill="none" stroke-linejoin="miter" d="M 0.00160023 11.999788 L 81.419764 12.000325 " stroke="#ffffff" stroke-width="24" stroke-opacity="1" stroke-miterlimit="4"/><g clip-path="url(#fe555ed01c)"><g clip-path="url(#8c8c8cd193)"><g clip-path="url(#37401907cc)"><path fill="#ffffff" d="M 222.074219 58.382812 C 225.269531 53.246094 231.992188 53.875 235.488281 55.179688 C 229.617188 54.558594 221.921875 77.777344 226.449219 90.644531 C 222.765625 86.371094 217.679688 65.445312 222.074219 58.382812 Z M 222.074219 58.382812 " fill-opacity="1" fill-rule="evenodd"/></g></g></g><path stroke-linecap="butt" transform="matrix(0.602072, -0.447223, 0.447223, 0.602072, 238.652936, 154.596988)" fill="none" stroke-linejoin="miter" d="M 0.00113876 11.998279 L 81.417647 12.000276 " stroke="#000000" stroke-width="24" stroke-opacity="1" stroke-miterlimit="4"/><path stroke-linecap="butt" transform="matrix(0.75, 0.000000000000000078, -0.000000000000000078, 0.75, 100.192766, 247.87498)" fill="none" stroke-linejoin="miter" d="M -0.00181342 7.500028 L 549.336773 7.500028 " stroke="#ffffff" stroke-width="15" stroke-opacity="1" stroke-miterlimit="4"/><path stroke-linecap="butt" transform="matrix(0.75, 0, 0, 0.75, 7.478133, 123.918314)" fill="none" stroke-linejoin="miter" d="M -0.00209391 7.49954 L 231.810425 7.49954 " stroke="#ffffff" stroke-width="15" stroke-opacity="1" stroke-miterlimit="4"/><path stroke-linecap="butt" transform="matrix(0.602072, -0.447223, 0.447223, 0.602072, 255.311152, 161.821861)" fill="none" stroke-linejoin="miter" d="M 0.001872 12.00163 L 81.421486 11.999445 " stroke="#000000" stroke-width="24" stroke-opacity="1" stroke-miterlimit="4"/></svg>